Coordinates
version=1
nRows=16
nColumns=42
inDegrees=yes

Units are S.I. units (second, meters, Newtons, ...)
If the header above contains a line with 'inDegrees', this indicates whether rotational values are in degrees (yes) or radians (no).

endheader
time	pelvis_tilt	pelvis_list	pelvis_rotation	pelvis_tx	pelvis_ty	pelvis_tz	hip_flexion_r	hip_adduction_r	hip_rotation_r	knee_angle_r	knee_adduction_r	knee_angle_r_beta	ankle_angle_r	subtalar_angle_r	mtp_angle_r	hip_flexion_l	hip_adduction_l	hip_rotation_l	knee_angle_l	knee_adduction_l	knee_angle_l_beta	ankle_angle_l	subtalar_angle_l	mtp_angle_l	lumbar_extension	lumbar_bending	lumbar_rotation	arm_flex_r	arm_add_r	arm_rot_r	elbow_flex_r	pro_sup_r	wrist_flex_r	wrist_dev_r	arm_flex_l	arm_add_l	arm_rot_l	elbow_flex_l	pro_sup_l	wrist_flex_l	wrist_dev_l
      0.30000000	     15.60474778	      1.13348751	     -0.40662899	     -0.90732165	      0.99308058	     -0.14936514	      5.61473606	     -2.39161492	     -2.79640575	     40.09398396	      3.84684854	      0.69977203	      4.58759491	     -9.13633570	     -9.60138272	    -20.82498561	      3.80808421	     -5.70210939	      3.57958561	      1.62357136	      0.06247555	      8.23250575	     15.82565555	     -9.60138272	    -34.00071438	     -0.07597147	      3.79170112	     -5.91969144	    -22.47462024	     -6.68194231	     71.19342591	     90.00000001	      0.00000000	      0.00000000	      3.92746771	    -20.78826978	      5.67272974	     66.29963957	     90.00000001	      0.00000000	      0.00000000
      0.31000000	     15.65537664	      1.30196126	     -0.12931863	     -0.89460080	      0.99134017	     -0.14973326	      6.26516215	     -2.46832240	     -3.39622015	     36.95274641	      3.54513830	      0.64494709	      4.30186328	     -8.81620698	     -9.51151246	    -21.89955425	      3.86998580	     -5.68686232	      3.23820447	      1.72084159	      0.05651733	      8.88134669	     16.37000968	     -9.51151246	    -34.05630024	     -0.06306196	      3.66566292	     -6.35189542	    -22.40154902	     -7.30865639	     71.21161773	     90.00000001	      0.00000000	      0.00000000	      4.75706270	    -21.19825967	      6.15912760	     66.91274256	     90.00000001	      0.00000000	      0.00000000
      0.32000000	     15.66605105	      1.54380009	      0.11472856	     -0.88193101	      0.98929842	     -0.15000392	      6.91599773	     -2.61436854	     -4.30459003	     33.76844216	      3.04156143	      0.58937050	      4.07824266	     -8.07221561	     -9.43708449	    -22.86012281	      4.01396174	     -5.55776064	      3.03667245	      1.79492669	      0.05299993	      9.57305252	     16.77996287	     -9.43708449	    -34.08452977	     -0.14667676	      3.52045163	     -6.73075761	    -22.30886970	     -7.89435614	     71.18098231	     90.00000001	      0.00000000	      0.00000000	      5.61431493	    -21.60676262	      6.66580148	     67.48211962	     90.00000001	      0.00000000	      0.00000000
      0.33000000	     15.30881231	      2.04937204	      0.19405620	     -0.86961455	      0.98643697	     -0.15024737	      8.07043401	     -3.03308600	     -5.10482701	     30.79229626	      2.46732144	      0.53742695	      3.83165556	     -7.21562414	     -9.40113451	    -23.25785378	      4.57899617	     -5.42477620	      3.11955519	      1.66789735	      0.05444651	     10.30946853	     16.94849514	     -9.40113451	    -33.76046044	     -0.55370771	      3.29995293	     -6.94772232	    -22.20940914	     -8.26193229	     71.03894595	     90.00000001	      0.00000000	      0.00000000	      6.45296791	    -21.96948890	      6.99122930	     68.01015356	     90.00000001	      0.00000000	      0.00000000
      0.34000000	     15.48557843	      2.24786762	      0.57000226	     -0.85674700	      0.98433785	     -0.15048928	      8.27618697	     -3.15192734	     -6.81939439	     27.31015742	      1.79381436	      0.47665217	      3.39514611	     -5.43448696	     -9.34797549	    -24.34603764	      4.52663578	     -4.98527096	      3.06172495	      1.90441588	      0.05343718	     11.16943234	     17.22691328	     -9.34797549	    -33.96942461	     -0.54324116	      3.15970682	     -7.34764023	    -22.03565661	     -8.98975097	     70.91625266	     90.00000001	      0.00000000	      0.00000000	      7.44138311	    -22.40313769	      7.84989269	     68.42302995	     90.00000001	      0.00000000	      0.00000000
      0.35000000	     15.51513117	      2.56704112	      0.80336747	     -0.84389982	      0.98176409	     -0.15053647	      8.74798486	     -3.29116131	     -8.81895942	     24.12237157	      0.78500828	      0.42101481	      3.23959121	     -3.06769193	     -9.28141823	    -25.18775346	      4.71255885	     -4.65732955	      3.18454803	      1.96833320	      0.05558085	     11.83600732	     17.23713491	     -9.28141823	    -34.02242084	     -0.71051402	      3.01972420	     -7.71403040	    -21.88582630	     -9.52222547	     70.94221443	     90.00000001	      0.00000000	      0.00000000	      8.39083016	    -22.79390661	      8.54763051	     68.79197219	     90.00000001	      0.00000000	      0.00000000
      0.36000000	     15.41113696	      3.07007004	      1.03674981	     -0.83093042	      0.97880606	     -0.15069512	      9.47466814	     -3.71886540	    -11.44742273	     21.37448761	     -0.25313306	      0.37305518	      3.55105897	      0.97740809	     -9.14482544	    -25.87090299	      5.12928910	     -4.01675934	      3.34917913	      1.92877908	      0.05845420	     12.42214313	     16.96518545	     -9.14482544	    -33.93105259	     -1.05472221	      2.78388374	     -8.08398685	    -21.73083643	     -9.96949791	     70.88716999	     90.00000001	      0.00000000	      0.00000000	      9.29651400	    -23.17431076	      9.17134083	     69.17805790	     90.00000001	      0.00000000	      0.00000000
      0.37000000	     15.00647992	      3.66758223	      1.18975590	     -0.81836017	      0.97548036	     -0.15078996	     10.40137483	     -4.26222445	    -12.63838589	     18.57132327	     -0.51944078	      0.32413074	      2.85199968	      2.19944360	     -9.11193181	    -26.07113921	      5.73561436	     -3.58577809	      3.79853934	      1.73583644	      0.06629702	     13.26981422	     16.98162907	     -9.11193181	    -33.58004990	     -1.53158522	      2.47773973	     -8.20129508	    -21.56379261	    -10.29025298	     70.62375812	     90.00000001	      0.00000000	      0.00000000	     10.14884632	    -23.50292782	      9.68840318	     69.47379297	     90.00000001	      0.00000000	      0.00000000
      0.38000000	     15.15887667	      3.89898595	      1.63791999	     -0.80490415	      0.97291448	     -0.15091790	     10.60053058	     -4.44795316	    -15.55417288	     15.99840380	     -1.14607642	      0.27922482	      2.80379264	      6.22523271	     -8.99640439	    -27.02235219	      5.62687537	     -2.98623805	      4.07558402	      1.96182721	      0.07113236	     13.88400625	     16.72368420	     -8.99640439	    -33.72631527	     -1.49810285	      2.29135560	     -8.63284082	    -21.36731855	    -10.88551185	     70.57782045	     90.00000001	      0.00000000	      0.00000000	     11.10184046	    -23.84836595	     10.58062731	     69.70973749	     90.00000001	      0.00000000	      0.00000000
      0.39000000	     14.84284522	      4.39602550	      1.92563368	     -0.79180339	      0.96975380	     -0.15102894	     11.23599241	     -4.95088073	    -16.66959199	     13.63059904	     -1.04692856	      0.23789883	      2.11320991	      7.27269699	     -8.96551366	    -27.32561994	      6.00714579	     -2.55976037	      4.60342370	      1.85148134	      0.08034490	     14.65012483	     16.78289965	     -8.96551366	    -33.42997722	     -1.80999135	      1.96359976	     -8.77840647	    -21.16760355	    -11.15810864	     70.24650303	     90.00000001	      0.00000000	      0.00000000	     11.86537513	    -24.12724276	     11.11140355	     69.94768603	     90.00000001	      0.00000000	      0.00000000
      0.40000000	     14.68282144	      4.68205457	      2.33994593	     -0.77838058	      0.96691745	     -0.15107820	     11.56227761	     -5.20260611	    -17.87677924	     11.46274317	     -0.94931641	      0.20006261	      1.48930728	      8.46199273	     -8.93832153	    -27.81121056	      6.03066664	     -2.15306842	      5.15091150	      1.87081814	      0.08990037	     15.28853569	     16.83554419	     -8.93832153	    -33.27367118	     -1.84966819	      1.68995867	     -8.98086984	    -20.96036876	    -11.51470899	     70.00347096	     90.00000001	      0.00000000	      0.00000000	     12.61563914	    -24.38731947	     11.73451924	     70.14506642	     90.00000001	      0.00000000	      0.00000000
      0.41000000	     14.59803484	      4.86032011	      2.80824349	     -0.76459505	      0.96426768	     -0.15107363	     11.78444896	     -5.33432119	    -19.09625310	      9.77744586	     -0.90138281	      0.17064862	      1.03167168	      9.63984144	     -8.90828436	    -28.36609795	      5.84371533	     -1.99464882	      5.77527096	      2.01030844	      0.10079749	     15.90658481	     16.97861148	     -8.90828436	    -33.15977895	     -1.75479540	      1.46213664	     -9.24152228	    -20.73826527	    -11.89946878	     69.74638862	     90.00000001	      0.00000000	      0.00000000	     13.29441132	    -24.58140433	     12.35558460	     70.31124519	     90.00000001	      0.00000000	      0.00000000
      0.42000000	     14.42850774	      5.00063455	      3.28599880	     -0.75060426	      0.96158368	     -0.15106942	     12.10887840	     -5.44379235	    -20.09365136	      8.64145424	     -0.82976352	      0.15082183	      0.82196963	     10.63396596	     -8.86833055	    -28.77272858	      5.63450520	     -2.09779365	      6.53240385	      2.03802786	      0.11401196	     16.55479109	     17.56653344	     -8.86833055	    -32.94959799	     -1.60567520	      1.25286541	     -9.50010592	    -20.56271298	    -12.27368069	     69.46548891	     90.00000001	      0.00000000	      0.00000000	     13.84946415	    -24.76754038	     12.87020696	     70.47184704	     90.00000001	      0.00000000	      0.00000000
      0.43000000	     14.18696736	      5.10670414	      3.73608381	     -0.73635763	      0.95883911	     -0.15103921	     12.54284803	     -5.52468214	    -20.78436112	      8.09272849	     -0.82971483	      0.14124476	      0.95443619	     11.48900020	     -8.74915303	    -28.94575088	      5.40845808	     -3.11632693	      7.65090297	      1.86731285	      0.13353345	     17.42189391	     19.55340725	     -8.74915303	    -32.61259623	     -1.44136663	      1.03096675	     -9.70313140	    -20.35770045	    -12.52332012	     69.18459539	     90.00000001	      0.00000000	      0.00000000	     14.25164569	    -24.84563154	     13.20044601	     70.66003821	     90.00000001	      0.00000000	      0.00000000
      0.44000000	     13.78019215	      5.25520481	      4.06361543	     -0.72194723	      0.95608420	     -0.15089247	     13.17053331	     -5.62749721	    -20.68106787	      8.06511246	     -0.83160508	      0.14076277	      0.97285019	     11.44170062	     -8.74296433	    -29.20121754	      5.28370365	     -3.06723769	      8.21281792	      1.87126567	      0.14334071	     17.43350168	     19.56261590	     -8.74296433	    -32.10749861	     -1.36607044	      0.88726948	     -9.97816128	    -20.28238210	    -12.55719453	     68.95179251	     90.00000001	      0.00000000	      0.00000000	     14.42297176	    -24.80540981	     13.21141460	     70.81048580	     90.00000001	      0.00000000	      0.00000000
      0.45000000	     13.55544315	      5.23593052	      4.71672302	     -0.70736267	      0.95382725	     -0.15101820	     13.38790735	     -5.61993553	    -20.70563528	      8.22843627	     -0.74679852	      0.14361331	      0.94790397	     10.55488097	     -8.66793356	    -29.26298775	      4.77981408	     -4.00936243	      9.62123572	      1.67483427	      0.16792224	     18.37656860	     21.73247881	     -8.66793356	    -31.78137012	     -0.97065599	      0.59506056	    -10.07933293	    -19.98607176	    -13.04884544	     68.50308545	     90.00000001	      0.00000000	      0.00000000	     14.65523353	    -24.92231736	     13.63020890	     70.98085832	     90.00000001	      0.00000000	      0.00000000
